<svg xmlns="http://www.w3.org/2000/svg" width="433.988" height="387.212" viewBox="0 0 433.988 387.212"><text transform="matrix(0.128, -0.911, 0.993, 0.126, 45.706, 231.535)" style="font-size:49.59452438354492px;fill:#231f20;font-family:GillSans-UltraBold, Gill Sans Ultra Bold;font-weight:700">T</text><text transform="matrix(0.339, -0.858, 0.933, 0.355, 51.59, 197.426)" style="font-size:49.59452438354492px;fill:#231f20;font-family:GillSans-UltraBold, Gill Sans Ultra Bold;font-weight:700">r</text><text transform="matrix(0.543, -0.749, 0.811, 0.577, 64.426, 166.785)" style="font-size:49.59452438354492px;fill:#231f20;font-family:GillSans-UltraBold, Gill Sans Ultra Bold;font-weight:700">u</text><text transform="matrix(0.7, -0.608, 0.654, 0.748, 88.978, 135.742)" style="font-size:49.59452438354492px;fill:#231f20;font-family:GillSans-UltraBold, Gill Sans Ultra Bold;font-weight:700">t</text><text transform="matrix(0.816, -0.439, 0.469, 0.876, 111.016, 117.164)" style="font-size:49.59452438354492px;fill:#231f20;font-family:GillSans-UltraBold, Gill Sans Ultra Bold;font-weight:700">h</text><text transform="matrix(0.883, -0.282, 0.296, 0.949, 147.056, 99.881)" style="font-size:49.59452438354492px;fill:#231f20;font-family:GillSans-UltraBold, Gill Sans Ultra Bold;font-weight:700"> </text><text transform="matrix(0.917, -0.126, 0.126, 0.988, 164.806, 94.28)" style="font-size:49.59452438354492px;fill:#030202;font-family:GillSans-UltraBold, Gill Sans Ultra Bold;font-weight:700">o</text><text transform="matrix(0.92, 0.073, -0.092, 0.994, 200.511, 90.507)" style="font-size:49.59452438354492px;fill:#030202;font-family:GillSans-UltraBold, Gill Sans Ultra Bold;font-weight:700">r</text><text transform="matrix(0.894, 0.22, -0.251, 0.968, 234.097, 94.59)" style="font-size:49.59452438354492px;fill:#231f20;font-family:GillSans-UltraBold, Gill Sans Ultra Bold;font-weight:700"> </text><text transform="matrix(0.833, 0.387, -0.433, 0.904, 252.078, 98.686)" style="font-size:49.59452438354492px;fill:#0e0609;font-family:GillSans-UltraBold, Gill Sans Ultra Bold;font-weight:700">D</text><text transform="matrix(0.713, 0.575, -0.637, 0.777, 290.307, 118.277)" style="font-size:49.59452438354492px;fill:#0e0609;font-family:GillSans-UltraBold, Gill Sans Ultra Bold;font-weight:700">r</text><text transform="matrix(0.597, 0.694, -0.765, 0.653, 315.481, 140.314)" style="font-size:49.59452438354492px;fill:#0e0609;font-family:GillSans-UltraBold, Gill Sans Ultra Bold;font-weight:700">i</text><text transform="matrix(0.444, 0.8, -0.88, 0.49, 329.81, 157.004)" style="font-size:49.59452438354492px;fill:#0e0609;font-family:GillSans-UltraBold, Gill Sans Ultra Bold;font-weight:700">n</text><text transform="matrix(0.22, 0.89, -0.974, 0.249, 347.691, 191.607)" style="font-size:49.59452438354492px;fill:#0e0609;font-family:GillSans-UltraBold, Gill Sans Ultra Bold;font-weight:700">k</text><ellipse cx="202.793" cy="237.962" rx="138.472" ry="134.279" style="fill:#0b0a0a;stroke:#231f20;stroke-miterlimit:10"/><path d="M152.257,182.116l.021-.026c7.066-8.739,20.129-7.49,25.613,2.45h0a15.372,15.372,0,0,0,18.912,7.331l2.278-.859s-1.719,8.1-5.687,9.151" transform="translate(0 10.12)" style="fill:#ed1c24"/><path d="M253.791,181.573l-.02-.027c-6.649-9.32-19.321-8.255-24.848,2.087h0c-3.864,7.229-11.614,10.311-18.469,7.345l-2.187-.946s1.487,8.546,5.305,9.726" transform="translate(0 10.12)" style="fill:#ed1c24"/><path d="M158.524,263.257,135.088,253.9a4.305,4.305,0,0,1-2.6-5.189l18.85-64.861,46.513,18.572-33.71,58.928A4.541,4.541,0,0,1,158.524,263.257Z" transform="translate(0 10.12)" style="fill:#34c1d6"/><path d="M159.335,258.276a1.569,1.569,0,0,1-.748-.188,1.475,1.475,0,0,1-.6-2.037l2.126-3.717a1.571,1.571,0,0,1,2.1-.584,1.476,1.476,0,0,1,.6,2.037l-2.127,3.717A1.554,1.554,0,0,1,159.335,258.276Z" transform="translate(0 10.12)" style="fill:#fff"/><path d="M164.606,249.062a1.569,1.569,0,0,1-.748-.188,1.475,1.475,0,0,1-.6-2.037l15.821-27.657a1.57,1.57,0,0,1,2.1-.583,1.474,1.474,0,0,1,.6,2.036l-15.821,27.658A1.553,1.553,0,0,1,164.606,249.062Z" transform="translate(0 10.12)" style="fill:#fff"/><path d="M198.62,204.879l-49.614-19.81a1.966,1.966,0,0,1-1.115-2.594h0a2.072,2.072,0,0,1,2.675-1.081L200.18,201.2A1.968,1.968,0,0,1,201.3,203.8h0A2.072,2.072,0,0,1,198.62,204.879Z" transform="translate(0 10.12)" style="fill:#fff"/><path d="M247.062,263.257,270.5,253.9a4.305,4.305,0,0,0,2.6-5.189L254.25,183.85l-46.513,18.572,33.71,58.928A4.541,4.541,0,0,0,247.062,263.257Z" transform="translate(0 10.12)" style="fill:#f47b25"/><path d="M266.369,250.242a1.538,1.538,0,0,1-1.486-1.091l-1.907-6.563a1.492,1.492,0,0,1,1.067-1.848,1.55,1.55,0,0,1,1.906,1.035l1.907,6.563a1.493,1.493,0,0,1-1.067,1.848A1.607,1.607,0,0,1,266.369,250.242Z" transform="translate(0 10.12)" style="fill:#fff"/><path d="M262.435,236.707a1.539,1.539,0,0,1-1.486-1.092l-9.242-31.8a1.493,1.493,0,0,1,1.068-1.848A1.552,1.552,0,0,1,254.681,203l9.241,31.8a1.492,1.492,0,0,1-1.067,1.848A1.562,1.562,0,0,1,262.435,236.707Z" transform="translate(0 10.12)" style="fill:#fff"/><path d="M251.328,198.49a1.539,1.539,0,0,1-1.486-1.092l-1.347-4.634a1.493,1.493,0,0,1,1.068-1.848,1.553,1.553,0,0,1,1.906,1.035l1.346,4.634a1.491,1.491,0,0,1-1.067,1.848A1.562,1.562,0,0,1,251.328,198.49Z" transform="translate(0 10.12)" style="fill:#fff"/><path d="M206.966,204.879l49.614-19.81a1.966,1.966,0,0,0,1.115-2.594h0a2.073,2.073,0,0,0-2.675-1.081L205.406,201.2a1.968,1.968,0,0,0-1.115,2.595h0A2.073,2.073,0,0,0,206.966,204.879Z" transform="translate(0 10.12)" style="fill:#fff"/><text y="10.12"/><path d="M200.738,181.35s-4.729,2.067-5.717,4.18-5.321.993-3.274-2.065S200.738,181.35,200.738,181.35Z" transform="translate(0 10.12)" style="fill:#ed1c24"/><path d="M199.261,174.7s-5.468-1.882-7.848-.924-5.171-3.187-1.211-4.113S199.261,174.7,199.261,174.7Z" transform="translate(0 10.12)" style="fill:#ed1c24"/><path d="M209.93,173.316s4.768-3.394,7.425-3.147,4.047-4.577-.156-4.34S209.93,173.316,209.93,173.316Z" transform="translate(0 10.12)" style="fill:#ed1c24"/><path d="M207.239,182.541s5.062,1.031,6.518,2.9,5.379-.151,2.674-2.725S207.239,182.541,207.239,182.541Z" transform="translate(0 10.12)" style="fill:#ed1c24"/><text y="10.12"/></svg>